<svg width="691.1999999999999" height="691.1999999999999" viewbox = "0 0 691.1999999999999 691.1999999999999"  xmlns="http://www.w3.org/2000/svg">
<!--<json>{
  "canvas": {
    "width": 691.1999999999999,
    "height": 691.1999999999999,
    "unit": 172.79999999999998,
    "x0": 345.59999999999997,
    "y0": 345.59999999999997,
    "theta0": -1.5707963267948966,
    "viewStep": 50
  },
  "style": {
    "color0": "black",
    "color1": "black",
    "color2": "red",
    "color3": "orange",
    "color4": "yellow",
    "color5": "green",
    "color6": "blue",
    "color7": "purple",
    "fill0": "black",
    "fill1": "black",
    "fill2": "red",
    "fill3": "orange",
    "fill4": "yellow",
    "fill5": "green",
    "fill6": "blue",
    "fill7": "purple",
    "line0": 5,
    "line1": 6,
    "line2": 2,
    "line3": 2,
    "line4": 2,
    "line5": 2,
    "line6": 2,
    "line7": 2
  },
  "cursor": {
    "x": 345.6,
    "y": 345.5999999999996,
    "r": 172.79999999999998,
    "word": "",
    "theta": 4.71238898038469,
    "thetaStep": 1.5707963267948966,
    "scaleFactor": 2,
    "font": "Arial",
    "bezier": {
      "cpx1": 403,
      "cpy1": 230,
      "cpx2": 346,
      "cpy2": 202,
      "x2": 346,
      "y2": 173
    }
  },
  "glyph": [
    null,
    null,
    null,
    222,
    222,
    222,
    217,
    217,
    217,
    217,
    217,
    219,
    242,
    131,
    131,
    131,
    131,
    131,
    131,
    131,
    131,
    131,
    131,
    220,
    131,
    131,
    131,
    220,
    131,
    131,
    131,
    131,
    131,
    131,
    131,
    131,
    131,
    131,
    220,
    131,
    131,
    131,
    236,
    217,
    217,
    217,
    218,
    218,
    232,
    221,
    227,
    220,
    216,
    196,
    220,
    129,
    129,
    129,
    129,
    129,
    129,
    218,
    232,
    221,
    227,
    220,
    196,
    219,
    219,
    216,
    216,
    221,
    221,
    223,
    223,
    129,
    129,
    222,
    129,
    221,
    221,
    221,
    221,
    222,
    226,
    221,
    216,
    216,
    219,
    226,
    219,
    219,
    219,
    219,
    219,
    219,
    219,
    219,
    226,
    219,
    219,
    221,
    217,
    219,
    219,
    226,
    216,
    223,
    223,
    223,
    217,
    222,
    222,
    216,
    223,
    223
  ]
}</json>-->	<path d = "M367 454 L367 432 L367 410 L367 389 L367 367 L367 346 L367 324 L367 302 L367 281 L367 259 L367 238 L346 238 L324 238 L302 238 L302 259 L302 281 L302 302 L302 324 L302 346 L302 367 L302 389 L302 410 L302 432 L302 454 L324 454 L346 454 L367 454 Z" stroke = "#000000" stroke-width = "5" fill = "none" />  <path d="M323.99999999999994 410.40000000000003           A21.599999999999998 21.599999999999998 0 0 1 302.3999999999999 432.00000000000006" fill = "none" stroke = "#000000" stroke-width = "5" />
    <line x1="324" y1="410" x2="324" y2="389" style="stroke:#000000;stroke-width:5" />
    <line x1="324" y1="389" x2="324" y2="367" style="stroke:#000000;stroke-width:5" />
    <line x1="324" y1="367" x2="324" y2="346" style="stroke:#000000;stroke-width:5" />
    <line x1="324" y1="346" x2="324" y2="324" style="stroke:#000000;stroke-width:5" />
    <line x1="324" y1="324" x2="324" y2="302" style="stroke:#000000;stroke-width:5" />
    <line x1="324" y1="302" x2="324" y2="281" style="stroke:#000000;stroke-width:5" />
  <path d="M302.3999999999999 259.1999999999999           A21.599999999999998 21.599999999999998 0 0 1 323.99999999999994 280.7999999999999" fill = "none" stroke = "#000000" stroke-width = "5" />
    <line x1="346" y1="238" x2="346" y2="324" style="stroke:#000000;stroke-width:5" />
    <line x1="346" y1="324" x2="346" y2="410" style="stroke:#000000;stroke-width:5" />
    <line x1="346" y1="410" x2="346" y2="454" style="stroke:#000000;stroke-width:5" />
    <line x1="346" y1="454" x2="346" y2="475" style="stroke:#000000;stroke-width:5" />
    <line x1="302" y1="432" x2="281" y2="432" style="stroke:#000000;stroke-width:5" />
    <line x1="302" y1="259" x2="281" y2="259" style="stroke:#000000;stroke-width:5" />
    <line x1="346" y1="238" x2="346" y2="216" style="stroke:#000000;stroke-width:5" />
</svg>