<svg width="691.1999999999999" height="691.1999999999999" viewbox = "0 0 691.1999999999999 691.1999999999999"  xmlns="http://www.w3.org/2000/svg">
<!--<json>{
  "canvas": {
    "width": 691.1999999999999,
    "height": 691.1999999999999,
    "unit": 172.79999999999998,
    "x0": 345.59999999999997,
    "y0": 345.59999999999997,
    "theta0": -1.5707963267948966,
    "viewStep": 50
  },
  "style": {
    "color0": "black",
    "color1": "black",
    "color2": "red",
    "color3": "orange",
    "color4": "yellow",
    "color5": "green",
    "color6": "blue",
    "color7": "purple",
    "fill0": "black",
    "fill1": "black",
    "fill2": "red",
    "fill3": "orange",
    "fill4": "yellow",
    "fill5": "green",
    "fill6": "blue",
    "fill7": "purple",
    "line0": 5,
    "line1": 6,
    "line2": 2,
    "line3": 2,
    "line4": 2,
    "line5": 2,
    "line6": 2,
    "line7": 2
  },
  "cursor": {
    "x": 345.59999999999997,
    "y": 172.79999999999973,
    "r": 172.79999999999998,
    "word": "",
    "theta": 23.561944901923454,
    "thetaStep": 1.5707963267948966,
    "scaleFactor": 2,
    "font": "Arial",
    "bezier": {
      "cpx1": 403,
      "cpy1": 230,
      "cpx2": 346,
      "cpy2": 202,
      "x2": 346,
      "y2": 173
    }
  },
  "glyph": [
    148
  ]
}</json>--><path    d = "M346,346 C346,317 403,302 403,331" fill = "none" stroke-width = "5" stroke = "#000000" />" stroke = "#000000" stroke-width = "5" fill = "none" /><path    d = "M403,331 C403,360 346,331 346,302" fill = "none" stroke-width = "5" stroke = "#000000" /><path    d = "M346,302 C346,274 403,259 403,288" fill = "none" stroke-width = "5" stroke = "#000000" />" stroke = "#000000" stroke-width = "5" fill = "none" /><path    d = "M403,288 C403,317 346,288 346,259" fill = "none" stroke-width = "5" stroke = "#000000" /><path    d = "M346,259 C346,230 403,216 403,245" fill = "none" stroke-width = "5" stroke = "#000000" />" stroke = "#000000" stroke-width = "5" fill = "none" /><path    d = "M403,245 C403,274 346,245 346,216" fill = "none" stroke-width = "5" stroke = "#000000" /><path    d = "M346,216 C346,187 403,173 403,202" fill = "none" stroke-width = "5" stroke = "#000000" />" stroke = "#000000" stroke-width = "5" fill = "none" /><path    d = "M403,202 C403,230 346,202 346,173" fill = "none" stroke-width = "5" stroke = "#000000" /></svg>