<svg width="691.1999999999999" height="691.1999999999999" viewbox = "0 0 691.1999999999999 691.1999999999999"  xmlns="http://www.w3.org/2000/svg">
<!--<json>{
  "canvas": {
    "width": 691.1999999999999,
    "height": 691.1999999999999,
    "unit": 306.1257408000001,
    "x0": 345.59999999999997,
    "y0": 345.59999999999997,
    "theta0": -1.5707963267948966,
    "viewStep": 50
  },
  "style": {
    "color0": "black",
    "color1": "black",
    "color2": "red",
    "color3": "orange",
    "color4": "yellow",
    "color5": "green",
    "color6": "blue",
    "color7": "purple",
    "fill0": "black",
    "fill1": "black",
    "fill2": "red",
    "fill3": "orange",
    "fill4": "yellow",
    "fill5": "green",
    "fill6": "blue",
    "fill7": "purple",
    "line0": 5,
    "line1": 6,
    "line2": 2,
    "line3": 2,
    "line4": 2,
    "line5": 2,
    "line6": 2,
    "line7": 2
  },
  "cursor": {
    "x": 651.7257408,
    "y": 575.1943056,
    "r": 76.53143520000002,
    "word": "",
    "theta": 4.71238898038469,
    "thetaStep": 1.5707963267948966,
    "scaleFactor": 2,
    "font": "Arial",
    "bezier": {
      "cpx1": 403,
      "cpy1": 230,
      "cpx2": 346,
      "cpy2": 202,
      "x2": 346,
      "y2": 173
    }
  },
  "glyph": [
    217,
    219,
    223,
    222,
    222,
    222,
    216,
    220,
    242,
    131,
    131,
    131,
    220,
    131,
    221,
    131,
    131,
    221,
    131,
    220,
    131,
    131,
    221,
    131,
    131,
    220,
    131,
    221,
    131,
    131,
    221,
    220,
    221,
    131,
    220,
    131,
    131,
    131,
    221,
    131,
    131,
    131,
    131,
    131,
    131,
    131,
    221,
    131,
    131,
    131,
    221,
    131,
    220,
    131,
    131,
    220,
    131,
    221,
    131,
    131,
    236,
    221,
    221
  ]
}</json>-->	<path d = "M652 575 L575 575 L499 575 L422 575 L422 652 L346 652 L269 652 L269 575 L193 575 L116 575 L116 499 L116 422 L39 422 L39 346 L39 269 L116 269 L116 193 L116 116 L116 39 L193 39 L269 39 L346 39 L422 39 L499 39 L575 39 L652 39 L652 116 L652 193 L652 269 L575 269 L575 346 L575 422 L652 422 L652 499 L652 575 Z" stroke = "#000000" stroke-width = "5" fill = "none" /></svg>