<svg width="691.1999999999999" height="691.1999999999999" viewbox = "0 0 691.1999999999999 691.1999999999999"  xmlns="http://www.w3.org/2000/svg">
<!--<json>{
  "canvas": {
    "width": 691.1999999999999,
    "height": 691.1999999999999,
    "unit": 142.80991735537188,
    "x0": 345.59999999999997,
    "y0": 345.59999999999997,
    "theta0": -1.5707963267948966,
    "viewStep": 50
  },
  "style": {
    "color0": "black",
    "color1": "black",
    "color2": "red",
    "color3": "orange",
    "color4": "yellow",
    "color5": "green",
    "color6": "blue",
    "color7": "purple",
    "fill0": "black",
    "fill1": "black",
    "fill2": "red",
    "fill3": "orange",
    "fill4": "yellow",
    "fill5": "green",
    "fill6": "blue",
    "fill7": "purple",
    "line0": 5,
    "line1": 6,
    "line2": 2,
    "line3": 2,
    "line4": 2,
    "line5": 2,
    "line6": 2,
    "line7": 2
  },
  "cursor": {
    "x": 631.2198347107436,
    "y": 631.2198347107436,
    "r": 71.40495867768594,
    "word": "",
    "theta": -7.853981633974483,
    "thetaStep": 1.5707963267948966,
    "scaleFactor": 2,
    "font": "Arial",
    "bezier": {
      "cpx1": 403,
      "cpy1": 230,
      "cpx2": 346,
      "cpy2": 202,
      "x2": 346,
      "y2": 173
    }
  },
  "glyph": [
    223,
    217,
    219,
    223,
    222,
    222,
    222,
    242,
    131,
    131,
    131,
    220,
    131,
    221,
    131,
    131,
    221,
    131,
    220,
    131,
    131,
    131,
    220,
    131,
    131,
    131,
    220,
    131,
    221,
    131,
    131,
    221,
    131,
    220,
    131,
    131,
    131,
    220,
    131,
    131,
    131,
    220,
    131,
    221,
    131,
    131,
    221,
    131,
    220,
    131,
    131,
    131,
    220,
    131,
    131,
    131,
    220,
    131,
    221,
    131,
    131,
    221,
    131,
    220,
    131,
    131,
    131,
    236,
    220
  ]
}</json>-->	<path d = "M631 631 L631 560 L631 488 L631 417 L560 417 L560 346 L560 274 L631 274 L631 203 L631 131 L631 60 L560 60 L488 60 L417 60 L417 131 L346 131 L274 131 L274 60 L203 60 L131 60 L60 60 L60 131 L60 203 L60 274 L131 274 L131 346 L131 417 L60 417 L60 488 L60 560 L60 631 L131 631 L203 631 L274 631 L274 560 L346 560 L417 560 L417 631 L488 631 L560 631 L631 631 Z" stroke = "#000000" stroke-width = "5" fill = "none" /></svg>